# xmcd CD database file
#
# Track frame offsets:
#	183
#	15475
#	44913
#	57545
#	92698
#	97245
#	103243
#	116635
#	134590
#	208335
#	217193
#
# Disc length: 3034 seconds
#
# Revision: 0
# Processed by: cddbd v1.4PL0 Copyright (c) Steve Scherf et al.
# Submitted via: Feurio! 1.65 - http://www.feurio.com
#
DISCID=b60bd80b
DTITLE=Son House - John The Revelator
DYEAR=1970
DGENRE=Blues
TTITLE0=Monologue - The B-L-U-E-S
TTITLE1=Between Midnight And Day
TTITLE2=I Want To Go Home On The Morning Train
TTITLE3=Levee Camp Moan
TTITLE4=This Light Of Mine
TTITLE5=Monologue - Thinkin' Strong
TTITLE6=Death Letter Blues
TTITLE7=How To Treat A Man
TTITLE8=Grinnin' In Your Face
TTITLE9=John The Revelator
TTITLE10=?
EXTD=ARD Sequel Records NEXCD 207  rec.1970
EXTT0=
EXTT1=
EXTT2=
EXTT3=
EXTT4=
EXTT5=
EXTT6=
EXTT7=
EXTT8=
EXTT9=
EXTT10=
PLAYORDER=
